<?xml version="1.0" standalone="no"?>
<!DOCTYPE svg PUBLIC "-//W3C//DTD SVG 20010904//EN"
 "http://www.w3.org/TR/2001/REC-SVG-20010904/DTD/svg10.dtd">
<svg version="1.0" xmlns="http://www.w3.org/2000/svg"
 width="700.000000pt" height="700.000000pt" viewBox="0 0 700.000000 700.000000"
 preserveAspectRatio="xMidYMid meet">
<metadata>
Created by potrace 1.11, written by Peter Selinger 2001-2013
</metadata>
<g transform="translate(0.000000,700.000000) scale(0.100000,-0.100000)"
fill="#000000" stroke="none">
<path d="M3278 6996 c-1 -2 -41 -6 -88 -10 -47 -4 -96 -8 -110 -10 -14 -3 -48
-7 -77 -10 -28 -3 -57 -8 -65 -10 -7 -3 -31 -7 -53 -10 -38 -5 -96 -17 -245
-52 -357 -85 -827 -298 -1122 -509 -31 -22 -66 -47 -78 -55 -45 -30 -187 -145
-265 -214 -358 -317 -677 -750 -860 -1166 -26 -58 -51 -114 -56 -125 -41 -90
-127 -360 -168 -525 -24 -103 -58 -298 -67 -385 -2 -22 -7 -76 -11 -120 -15
-155 -8 -587 12 -706 2 -13 6 -46 9 -74 9 -78 23 -156 51 -285 30 -141 110
-396 173 -550 230 -569 642 -1104 1134 -1473 534 -400 1158 -639 1817 -695
169 -14 613 -6 713 13 12 3 40 7 63 10 371 52 738 165 1076 334 204 102 343
189 535 332 710 530 1189 1305 1348 2179 40 222 53 391 50 660 -1 135 -4 261
-7 280 -3 19 -9 60 -12 90 -15 127 -14 116 -40 255 -56 302 -153 590 -296 880
-410 834 -1144 1477 -2024 1773 -168 57 -420 119 -555 137 -19 3 -46 7 -60 10
-13 2 -52 7 -86 11 -33 3 -74 8 -90 10 -33 5 -540 14 -546 10z m537 -259 c17
-3 59 -9 95 -13 36 -4 67 -8 70 -9 3 -1 30 -5 60 -9 30 -5 62 -10 70 -11 637
-128 1196 -419 1649 -859 481 -467 800 -1053 930 -1706 12 -58 23 -126 26
-151 3 -26 8 -58 10 -70 26 -131 27 -644 1 -809 -2 -14 -7 -46 -10 -71 -76
-550 -337 -1147 -689 -1572 -95 -114 -111 -131 -247 -267 -299 -298 -635 -523
-1025 -687 -177 -75 -432 -155 -564 -178 -19 -3 -37 -8 -41 -10 -3 -2 -29 -7
-56 -11 -27 -3 -52 -8 -55 -10 -3 -2 -34 -6 -70 -10 -35 -3 -67 -8 -70 -10
-43 -25 -673 -25 -805 0 -10 2 -39 7 -64 10 -338 46 -683 157 -1005 322 -162
83 -183 95 -310 178 -311 205 -615 494 -843 803 -181 245 -363 599 -457 888
-60 182 -117 426 -131 551 -3 32 -7 61 -9 64 -18 30 -27 587 -12 725 12 104
33 247 42 285 1 3 5 25 9 50 14 75 77 317 96 365 4 11 27 72 50 135 41 109
146 344 166 372 6 7 23 38 39 68 39 76 163 265 237 364 150 198 337 393 532
556 111 91 147 118 291 213 434 287 942 463 1490 516 90 9 543 7 600 -2z"/>
<path d="M3405 6254 c3 -25 22 -89 42 -143 71 -195 83 -239 83 -314 0 -69 -2
-87 -15 -148 -12 -62 -51 -175 -115 -334 -81 -203 -106 -278 -123 -370 -18
-94 -14 -170 10 -225 24 -53 128 -193 194 -259 9 -9 37 -43 64 -76 26 -33 50
-62 53 -65 16 -16 -16 111 -50 200 -64 169 -79 221 -79 290 -2 126 26 232 131
495 65 165 94 246 106 296 49 207 38 282 -63 406 -26 32 -49 60 -52 63 -4 3
-31 34 -61 70 -30 36 -60 71 -67 77 -6 7 -21 28 -33 48 -12 19 -24 35 -27 35
-3 0 -2 -21 2 -46z"/>
<path d="M4125 6215 c9 -52 33 -142 49 -180 89 -210 101 -313 57 -475 -12 -41
-23 -83 -26 -94 -2 -10 -40 -109 -84 -220 -71 -179 -99 -259 -117 -337 -3 -13
-8 -64 -11 -112 -5 -84 -4 -91 27 -152 33 -66 57 -96 235 -300 14 -16 33 -42
43 -57 9 -16 19 -28 23 -28 14 0 -15 111 -61 235 -65 177 -70 199 -66 291 7
126 31 211 145 499 83 208 109 299 118 406 9 123 -19 183 -167 348 -42 47 -98
115 -124 151 l-48 65 7 -40z"/>
<path d="M2677 5914 c7 -44 22 -93 87 -279 42 -121 45 -136 42 -215 -4 -110
-53 -289 -116 -425 -23 -49 -90 -226 -109 -289 -28 -91 -31 -107 -38 -203 -5
-76 -4 -86 24 -145 28 -59 84 -135 160 -218 17 -19 55 -64 83 -100 71 -88 69
-87 63 -44 -5 42 -37 142 -78 244 -84 211 -72 321 77 700 72 182 105 280 124
360 3 14 8 64 11 111 5 77 3 90 -20 135 -21 42 -89 134 -132 180 -37 40 -115
134 -142 172 -43 60 -43 60 -36 16z"/>
<path d="M4605 4105 c-338 -59 -685 -314 -908 -665 l-35 -56 103 -102 c106
-104 194 -207 257 -299 l36 -52 23 57 c29 72 141 289 181 352 95 150 163 250
240 352 80 108 211 273 227 288 17 15 111 129 111 134 0 11 -157 4 -235 -9z"/>
<path d="M5070 3932 c-165 -149 -448 -439 -554 -567 -126 -152 -251 -338 -325
-482 l-52 -103 20 -39 c51 -99 128 -317 157 -441 41 -182 58 -315 57 -470 0
-109 -2 -136 -19 -239 -4 -26 -3 -42 2 -38 5 3 30 8 54 12 74 11 218 63 319
116 503 262 858 877 845 1462 -8 350 -134 641 -355 819 -24 19 -49 37 -54 41
-6 3 -48 -29 -95 -71z"/>
<path d="M2437 3725 c-1 -2 -36 -5 -77 -9 -41 -3 -84 -8 -95 -10 -11 -3 -27
-5 -35 -6 -10 0 -5 -9 15 -27 221 -190 416 -373 549 -512 28 -29 65 -68 81
-85 17 -17 69 -76 116 -131 340 -396 596 -853 754 -1345 41 -128 116 -417 136
-528 l13 -71 23 21 c85 80 223 350 247 484 2 10 9 51 17 89 14 76 19 342 7
440 -53 434 -282 877 -628 1211 -46 44 -105 94 -200 167 -42 32 -140 93 -223
136 -200 107 -427 168 -640 175 -31 2 -58 2 -60 1z"/>
<path d="M1724 3408 c-127 -133 -227 -330 -270 -531 -32 -149 -37 -419 -10
-553 2 -12 7 -39 10 -59 44 -274 213 -636 416 -890 85 -105 246 -264 340 -334
41 -31 77 -58 80 -61 6 -6 24 -17 132 -80 163 -95 342 -162 524 -195 80 -14
341 -15 414 0 117 23 332 115 400 172 12 10 36 30 52 44 l31 26 -66 125 c-207
392 -429 749 -693 1118 -214 300 -336 437 -654 742 -87 83 -276 246 -415 357
-77 62 -158 127 -179 144 -21 18 -42 33 -46 35 -3 1 -33 -26 -66 -60z"/>
</g>
</svg>
