<svg xmlns="http://www.w3.org/2000/svg" viewBox="0 0 141.89 153.45"><defs><style>.cls-1{fill:none;stroke:#000;stroke-miterlimit:10;stroke-width:4px;}</style></defs><title>logo-black</title><g id="Layer_2" data-name="Layer 2"><circle class="cls-1" cx="70.85" cy="80.19" r="54.2"/></g><g id="Layer_5" data-name="Layer 5"><path d="M37.49,65.89c.27.17.31.43.11.78-.09.15-.23.37-.42.65s-.32.51-.4.66a2.7,2.7,0,0,0-.48,1.56c.06.35.39.68,1,1l1.46.75,1.46.75c.21.12.54.27,1,.47a9.83,9.83,0,0,1,1,.46c.17.09.21.27.1.53s-.43.94-.8,1.71-.65,1.33-.9,1.76c-.15.25-.34.33-.56.23L37.25,76,34.5,74.72a14.93,14.93,0,0,0-4.71-1.36.74.74,0,0,1-.19,0,.25.25,0,0,1-.13-.31c.18-.54.43-1.34.77-2.38.46-1.57.73-2.37.75-2.41s.37-.15.86.05.77.24.83.13c-.06.12-.08-.34,0-1.4a6.19,6.19,0,0,1,.78-2.74c.28-.48.51-.66.68-.56a9,9,0,0,1,.84.61,9,9,0,0,0,.83.62c.2.13.48.29.83.49Z" transform="translate(-29.46 -20.48)"/><path d="M47.84,54.75A6.75,6.75,0,0,1,50.1,59.2a6.4,6.4,0,0,1-1.45,4.59,6.62,6.62,0,0,1-4,2.62,6.28,6.28,0,0,1-4.8-.92A6,6,0,0,1,36.9,61.3a7,7,0,0,1,1.61-5.4A6.78,6.78,0,0,1,43.17,53,5.74,5.74,0,0,1,47.84,54.75ZM45,58a2.49,2.49,0,0,0-1.77-.61,2.12,2.12,0,0,0-1.67.89,2.22,2.22,0,0,0-.44,1.9,2.48,2.48,0,0,0,1,1.55,2.59,2.59,0,0,0,1.78.52,2.22,2.22,0,0,0,2-2.66A2.66,2.66,0,0,0,45,58Z" transform="translate(-29.46 -20.48)"/><path d="M59,44.88q.55.79,1.74,2.31c.79,1,1.36,1.77,1.72,2.3.2.27.19.5,0,.67-.73.61-1.59,1.28-2.56,2-.11.09-.34,0-.68-.38s-.53-.51-.6-.47a2.32,2.32,0,0,0-.06.32,4,4,0,0,1-1.24,2.89,5,5,0,0,1-4.11,1.18,7,7,0,0,1-4.13-2A6.31,6.31,0,0,1,47,49.23a6.1,6.1,0,0,1,2.36-4.68,4.13,4.13,0,0,1,3.5-1.08c.06,0,.09,0,.11,0s0-.27-.15-.65-.19-.63-.08-.72a12.12,12.12,0,0,1,1.7-.94,15.69,15.69,0,0,1,1.82-.76c.14,0,.23,0,.28,0a2.44,2.44,0,0,1,.12.24A25.68,25.68,0,0,0,59,44.88Zm-3.22,2.48a2.37,2.37,0,0,0-1.64-1,2.35,2.35,0,0,0-1.85.62,2.31,2.31,0,0,0-.25,3.5,2.41,2.41,0,0,0,1.69.83,2.29,2.29,0,0,0,1.75-.54,2.36,2.36,0,0,0,.88-1.63A2.57,2.57,0,0,0,55.82,47.36Z" transform="translate(-29.46 -20.48)"/><path d="M66.19,36.15a.59.59,0,0,1,0,.39,2.85,2.85,0,0,0-.69.25,2.27,2.27,0,0,0-1,.88,1.16,1.16,0,0,0,0,1.24,1.86,1.86,0,0,0,1.1.67,11.06,11.06,0,0,1,1.7.67,3.65,3.65,0,0,1,1.49,1.55,4.54,4.54,0,0,1,.4,1.32,2.69,2.69,0,0,1-.07,1.33A8.87,8.87,0,0,1,68,46.59a5.7,5.7,0,0,1-1.64,1.62c-.13.08-.65-.14-1.59-.63a6.09,6.09,0,0,1-1.59-1c0-.06,0-.12,0-.19.41-.39.83-.78,1.26-1.16a1.28,1.28,0,0,0,.31-1.54,2.11,2.11,0,0,0-1.19-.78c-1.09-.35-1.67-.51-1.72-.54a3.33,3.33,0,0,1-1.57-1.27,3.65,3.65,0,0,1,0-3.78,6.54,6.54,0,0,1,2.86-3c.12-.07.66.16,1.57.71A5.75,5.75,0,0,1,66.19,36.15Z" transform="translate(-29.46 -20.48)"/><path d="M78.57,38.12c.07.24.17.61.27,1.12s.2.87.27,1.09a.94.94,0,0,1,.08.46,1.32,1.32,0,0,1-.26.39,6.65,6.65,0,0,1-2.73,1.93c-2,.78-3.37.4-4.15-1.29-.23-.5-.55-1.27-1-2.3s-.74-1.8-1-2.3c-.15-.34-.42-.42-.82-.24l-.15.07-.14.08c-.29.13-.49.1-.58-.11s-.14-.31-.24-.57-.18-.45-.24-.57-.2-.4-.37-.71-.3-.56-.38-.72.15-.35.66-.6c.28-.14.41-.29.36-.44a8.15,8.15,0,0,0-.57-1.4l-.69-1.39c-.4-.89-.51-1.37-.32-1.46a5.26,5.26,0,0,1,1-.29c.54-.11.9-.19,1.1-.25.47-.13,1.16-.33,2.09-.57.23-.07.36,0,.41.07.12.32.27.8.46,1.46s.34,1.14.47,1.46.34.53.58.44.72-.28,1.31-.51,1-.39,1.33-.49.3,0,.34.09a8.34,8.34,0,0,1,.21.84,6,6,0,0,0,.22.84c.06.2.16.47.29.84s.23.64.29.83,0,.29-.26.36l-.81.26c-.38.11-.64.2-.8.26l-.89.32c-.12.05-.11.24,0,.59l.32.83.33.83a3.12,3.12,0,0,0,.74,1.28,1.35,1.35,0,0,0,1.37.08,3.46,3.46,0,0,0,.76-.41,3.17,3.17,0,0,1,.69-.38A.24.24,0,0,1,78.57,38.12Z" transform="translate(-29.46 -20.48)"/><path d="M90.43,32.25c.11.84-.08,1.35-.58,1.54-.09,0-.91.23-2.43.67-.91.28-2.28.67-4.06,1.25a1.82,1.82,0,0,0,1.27,1,3.59,3.59,0,0,0,1.6,0,4.48,4.48,0,0,0,2-1L89,35a3.56,3.56,0,0,1,1,1.14,4.93,4.93,0,0,1,.78,1.38.79.79,0,0,1-.13.31,5.67,5.67,0,0,1-3.92,2.34,6.18,6.18,0,0,1-4.63-.69,6.74,6.74,0,0,1-3-4,6.33,6.33,0,0,1,.28-5,5.9,5.9,0,0,1,4.24-3,5.49,5.49,0,0,1,4.56,1A5.58,5.58,0,0,1,90.43,32.25ZM86,32.19A2,2,0,0,0,85.2,31a1.78,1.78,0,0,0-1.44-.3,1.55,1.55,0,0,0-1.14.94,2.2,2.2,0,0,0-.12,1.52.31.31,0,0,0,.42.25c.6-.14,1.5-.45,2.73-.89C85.91,32.37,86,32.28,86,32.19Z" transform="translate(-29.46 -20.48)"/><path d="M106.18,20.81c0-.18,0,.09-.17.82q-.26,1.38-.48,3.54-.27,2.46-.48,5.59a73.41,73.41,0,0,0-.23,7.39v.3a.16.16,0,0,1-.18.15c-.27,0-1.25,0-3-.06-.4,0-.63-.1-.69-.28l0-.95a.48.48,0,0,0-.09-.21l-.17.15a4.14,4.14,0,0,1-3,1.38A4.9,4.9,0,0,1,93.74,37a7.28,7.28,0,0,1-1.9-4.3,6.44,6.44,0,0,1,1-4.64,5.31,5.31,0,0,1,4.34-2.17,3.85,3.85,0,0,1,3.13,1.15c.12.13.21.2.26.2s.12-.11.12-.32c0-.65,0-1.61,0-2.89s0-2.25,0-2.88c0-.25.07-.38.23-.42l2.5-.09c1.9-.14,2.75-.17,2.53-.18A.27.27,0,0,1,106.18,20.81Zm-5.44,11.34a2.48,2.48,0,0,0-.68-1.74,2.16,2.16,0,0,0-1.68-.73,2,2,0,0,0-1.62.81,2.69,2.69,0,0,0-.51,1.81A2.66,2.66,0,0,0,96.93,34a1.93,1.93,0,0,0,1.57.71,2.06,2.06,0,0,0,1.58-.78A2.69,2.69,0,0,0,100.74,32.15Z" transform="translate(-29.46 -20.48)"/><path d="M127.18,37.43a7.33,7.33,0,0,1-3,3.6,5,5,0,0,1-4.22.55,3.73,3.73,0,0,1-2.31-1.8.21.21,0,0,0-.12-.1c-.07,0-.18.11-.32.39s-.26.43-.36.44-1.16-.25-3.12-.66q-.69-.14-.63-.42a.84.84,0,0,1,.06-.18q.61-1.92,1.75-7.42a85,85,0,0,0,1.45-9.23l0-.14c0-.13.18-.18.47-.14l2.47.33a21,21,0,0,1,2.44.48c.18,0,.23.2.16.47s-.22.72-.41,1.23-.37,1-.43,1.24c-.26.79-.58,1.87-1,3.26-.07.25,0,.39.1.43a.27.27,0,0,0,.22-.05,4.06,4.06,0,0,1,3.35-.29,5.26,5.26,0,0,1,3.66,3.24A6.52,6.52,0,0,1,127.18,37.43ZM123,35.78a2.46,2.46,0,0,0,0-1.87,2.07,2.07,0,0,0-1.39-1.19,2,2,0,0,0-1.81.25,2.62,2.62,0,0,0-1.06,1.57,2.68,2.68,0,0,0,.09,1.87,2,2,0,0,0,1.36,1.13,2,2,0,0,0,1.76-.24A2.77,2.77,0,0,0,123,35.78Z" transform="translate(-29.46 -20.48)"/><path d="M139.47,43c-.46.72-.95,1-1.46.79-.09,0-.86-.42-2.33-1.07-.89-.39-2.21-1-4-1.68a1.8,1.8,0,0,0,.34,1.57,3.63,3.63,0,0,0,1.23,1,4.63,4.63,0,0,0,2.16.52l1.1,0a3.35,3.35,0,0,1,.05,1.54,4.67,4.67,0,0,1-.29,1.56.57.57,0,0,1-.3.15,5.88,5.88,0,0,1-4.59-.77,6.21,6.21,0,0,1-3.14-3.51,6.73,6.73,0,0,1,.3-5,6.41,6.41,0,0,1,3.49-3.65,6,6,0,0,1,5.24.44,5.56,5.56,0,0,1,2.93,3.69A5.46,5.46,0,0,1,139.47,43Zm-3.4-2.93a1.87,1.87,0,0,0,.18-1.47,1.79,1.79,0,0,0-.92-1.16,1.64,1.64,0,0,0-1.51,0,2.35,2.35,0,0,0-1.08,1.08.3.3,0,0,0,.17.46,28.71,28.71,0,0,0,2.7,1.09C135.87,40.12,136,40.13,136.07,40.05Z" transform="translate(-29.46 -20.48)"/><path d="M150.64,52.64c-.45.47-1.1,1.18-1.94,2.14s-1.5,1.67-1.95,2.12c-.23.24-.46.27-.67.09-.75-.63-1.57-1.36-2.5-2.19-.11-.1,0-.35.25-.74s.4-.63.35-.68a.89.89,0,0,0-.33,0,4,4,0,0,1-3.06-.7,4.87,4.87,0,0,1-1.85-3.8,7,7,0,0,1,1.25-4.4,6.39,6.39,0,0,1,4-2.95,5.92,5.92,0,0,1,5,1.44,4.13,4.13,0,0,1,1.71,3.25.17.17,0,0,0,0,.12c.06,0,.27,0,.62-.28s.58-.3.68-.2a11.34,11.34,0,0,1,1.26,1.53,16.91,16.91,0,0,1,1.11,1.68c.07.14.07.23,0,.29l-.22.16A25.21,25.21,0,0,0,150.64,52.64Zm-3.06-2.77a2.36,2.36,0,0,0,.64-1.79,2.42,2.42,0,0,0-.95-1.71,2.33,2.33,0,0,0-1.85-.59,2.4,2.4,0,0,0-1.62,1,2.53,2.53,0,0,0-.52,1.81,2.32,2.32,0,0,0,.85,1.62,2.35,2.35,0,0,0,1.76.57A2.48,2.48,0,0,0,147.58,49.87Z" transform="translate(-29.46 -20.48)"/><path d="M155.82,68.64a.35.35,0,0,1-.51-.08c-.16-.18-.49-.69-1-1.5a16.6,16.6,0,0,1-1-1.62.46.46,0,0,1,.21-.6c.31-.24.8-.58,1.46-1s1.15-.79,1.48-1,.62-.46,1.1-.84l1.11-.84a1.48,1.48,0,0,0,.42-2.34,2.43,2.43,0,0,0-1.1-.73q-.84-.3-1.2,0l-5.28,4.28a.42.42,0,0,1-.6,0c-.2-.2-.58-.64-1.14-1.29a18.13,18.13,0,0,1-1.14-1.42.39.39,0,0,1,.06-.55l2.18-2L153,55a17.16,17.16,0,0,0,3.25-3.74l.12-.15a.27.27,0,0,1,.35,0l1.78,1.58c1.17,1,1.81,1.56,1.93,1.7s-.1.33-.5.73-.58.65-.51.73a6,6,0,0,1,1.62.65,6.29,6.29,0,0,1,2.47,1.89,5.59,5.59,0,0,1,1.11,3,2.68,2.68,0,0,1-1.29,2.47L159.94,66l-2.06,1.32Z" transform="translate(-29.46 -20.48)"/><path d="M169.56,73.84a.62.62,0,0,1-.4-.08,4.5,4.5,0,0,0-.26-.81,2.92,2.92,0,0,0-.92-1.21,1.15,1.15,0,0,0-1.26-.18c-.27.13-.49.52-.7,1.16a10.85,10.85,0,0,1-.67,1.81A3.21,3.21,0,0,1,163.77,76a3.94,3.94,0,0,1-1.35.3,2.8,2.8,0,0,1-1.38-.24,11.11,11.11,0,0,1-2.2-1.47,7.28,7.28,0,0,1-1.66-2c-.08-.15.14-.7.64-1.67a6,6,0,0,1,1-1.61c.07,0,.13,0,.19,0q.6.72,1.2,1.47c.57.57,1.1.75,1.57.5a2,2,0,0,0,.81-1.23c.35-1.14.52-1.75.54-1.81a3.19,3.19,0,0,1,1.31-1.58,3.61,3.61,0,0,1,3.87.4,8,8,0,0,1,3,3.48c.07.15-.17.72-.72,1.68A5.71,5.71,0,0,1,169.56,73.84Z" transform="translate(-29.46 -20.48)"/><path d="M90.31,93.43h0c-1.63-2.7-5.44-5.45-5.44-8.18,0-5.27,4.35-10.55,4.35-15.83,0-2.73-2.17-5.46-2.17-8.19h0c2.11,3.48,5.43,5.46,5.43,8.19,0,5.3-4.35,10.6-4.35,15.9C88.13,88,90.31,90.73,90.31,93.43Z" transform="translate(-29.46 -20.48)"/><path d="M113.57,88.67h0c-1.63-2.7-5.43-5.46-5.43-8.18,0-5.28,4.34-10.56,4.34-15.83,0-2.73-2.17-5.46-2.17-8.19h0c2.12,3.48,5.44,5.46,5.44,8.19,0,5.3-4.35,10.6-4.35,15.9C111.4,83.26,113.57,86,113.57,88.67Z" transform="translate(-29.46 -20.48)"/><path d="M101.94,87.71h0c-1.63-2.69-5.44-5.45-5.44-8.18,0-5.27,4.35-10.55,4.35-15.83,0-2.73-2.17-5.46-2.17-8.19h0c2.11,3.48,5.43,5.46,5.43,8.19,0,5.3-4.34,10.6-4.34,15.9C99.77,82.31,101.94,85,101.94,87.71Z" transform="translate(-29.46 -20.48)"/><path d="M91.52,118.8c-5.86-7.61-15-14.83-18.75-17.65C65.1,108,65,121.8,72.79,133c8.3,11.85,22.41,16.3,31.51,9.93a15.24,15.24,0,0,0,1.53-1.23A154,154,0,0,0,91.52,118.8Z" transform="translate(-29.46 -20.48)"/><path d="M79.72,97.54c4,3.33,11.74,10.22,16.67,17.54,6.57,9.76,8.69,18,10.31,25.76,6.74-7.13,6.54-20.22-1-30.93C99,100.25,88.35,95.51,79.72,97.54Z" transform="translate(-29.46 -20.48)"/><path d="M126.9,92.48c-2.8,2.63-10.15,9-14.23,15.84-.82,1.38-1.36,2.48-2.06,3.89,3.07,6.24,4.65,14.16,3.27,19.72,6.46-.79,13.07-5.69,16.87-13.27C135.83,108.52,134.05,97.2,126.9,92.48Z" transform="translate(-29.46 -20.48)"/><path d="M108.73,109c.18.27.34.54.52.81.35-.85.74-1.72,1.16-2.61,3.16-6.62,8.69-13.23,11.57-16.45-6.91-.59-14.56,4-19.09,11.86A33.56,33.56,0,0,1,108.73,109Z" transform="translate(-29.46 -20.48)"/></g><g id="Layer_6" data-name="Layer 6"><path d="M37.2,116.05a1.53,1.53,0,0,1-1.33-.31,2.1,2.1,0,0,1-.79-1.33,2.17,2.17,0,0,1,.26-1.53,1.6,1.6,0,0,1,1.13-.8,1.65,1.65,0,0,1,1.31.38,2.23,2.23,0,0,1,.52,2.76A1.64,1.64,0,0,1,37.2,116.05Z" transform="translate(-29.46 -20.48)"/><path d="M41.07,130s0-.17-.08-.49a3.46,3.46,0,0,0-.2-.74,1.57,1.57,0,0,0-.79-.88,1.33,1.33,0,0,0-1.12,0,1.31,1.31,0,0,0-.81.86,1.94,1.94,0,0,0,.12,1.3,2.47,2.47,0,0,0,.48.67L39,131c0,.08-.2.32-.7.73a6.83,6.83,0,0,1-.95.67c-.16.08-.45-.16-.85-.74a6.41,6.41,0,0,1-.66-1.15,4.31,4.31,0,0,1-.12-3.3,3.5,3.5,0,0,1,2.14-2.1,3.66,3.66,0,0,1,2.92.12,4,4,0,0,1,2,2.18,4.3,4.3,0,0,1,.36,2c0,.15,0,.24-.1.27a5.1,5.1,0,0,1-.87.17,7.79,7.79,0,0,1-.93.13C41.15,130,41.09,130,41.07,130Z" transform="translate(-29.46 -20.48)"/><path d="M45.14,139.88a3.49,3.49,0,0,1-2.86.64,3.83,3.83,0,0,1-2.43-2,4.09,4.09,0,0,1-.52-3.1,3.39,3.39,0,0,1,1.82-2.28,3.9,3.9,0,0,1,2.93-.39,3.7,3.7,0,0,1,2.23,1.84,3.83,3.83,0,0,1,.51,2.84A3.88,3.88,0,0,1,45.14,139.88Zm-1.35-2.11a1.59,1.59,0,0,0,.68-.87,1.24,1.24,0,0,0-.1-1.06,1.25,1.25,0,0,0-.89-.62,1.54,1.54,0,0,0-1.06.19,1.57,1.57,0,0,0-.7.85,1.29,1.29,0,0,0,.11,1.13,1.23,1.23,0,0,0,.9.62A1.45,1.45,0,0,0,43.79,137.77Z" transform="translate(-29.46 -20.48)"/><path d="M50.36,144.91a.17.17,0,0,1-.26,0,10.3,10.3,0,0,1-.76-1c-.27.25-.66.59-1.16,1-.22.18-.58.51-1.09,1s-.83.76-1.1,1q-.12.11-.27-.06a10.46,10.46,0,0,1-.85-1,7.17,7.17,0,0,1-.67-.95.28.28,0,0,1,.08-.4L47.53,142c.11-.09.11-.21,0-.37l-.1-.13-.11-.13q-.12-.16,0-.24.48-.44,1.47-1.17a.31.31,0,0,1,.43,0l.32.37c.3-.26.54-.45.72-.59A3,3,0,0,1,52,139a3.58,3.58,0,0,1,2.68,1.53q.09.1,0,.18l-.65.76-.26.34a1.61,1.61,0,0,1-.28.32c-.09.08-.25,0-.48-.22s-.48-.39-.61-.39a1.7,1.7,0,0,0-.95.49,2.61,2.61,0,0,0-.34.32l.4.46.41.47c.1.11.1.2,0,.27l-.79.69Z" transform="translate(-29.46 -20.48)"/><path d="M55.11,149.86a.16.16,0,0,1-.26,0A9.21,9.21,0,0,1,54,149l-1,1.14c-.2.21-.52.58-1,1.1s-.74.84-1,1.09c-.07.08-.16.07-.28,0a13,13,0,0,1-.94-.9,7.88,7.88,0,0,1-.76-.85.28.28,0,0,1,0-.4l3-2.81c.1-.1.09-.22,0-.36a1.29,1.29,0,0,0-.12-.12l-.11-.11c-.09-.1-.11-.18-.06-.23.29-.33.74-.77,1.34-1.33a.31.31,0,0,1,.42,0l.36.33c.27-.29.49-.51.65-.66a3.09,3.09,0,0,1,1.66-1,3.53,3.53,0,0,1,2.81,1.18c.06.06.08.12,0,.17l-.57.83s-.1.15-.22.36a2.74,2.74,0,0,1-.25.35c-.08.08-.25,0-.5-.16s-.51-.33-.65-.31a1.73,1.73,0,0,0-.89.59c-.11.12-.21.23-.3.35.1.09.24.23.45.41l.45.41c.1.1.12.18,0,.26l-.71.77Z" transform="translate(-29.46 -20.48)"/><path d="M61.59,156c-.29.41-.58.55-.88.43-.05,0-.49-.26-1.31-.74-.5-.29-1.22-.74-2.17-1.38a1,1,0,0,0,0,1,2.17,2.17,0,0,0,.64.76,2.72,2.72,0,0,0,1.27.5l.66,0a2,2,0,0,1,0,.91,3,3,0,0,1-.21.92.4.4,0,0,1-.19.07,3.59,3.59,0,0,1-2.89-.91A3.83,3.83,0,0,1,54.91,155a3.53,3.53,0,0,1,1-2.84,4.31,4.31,0,0,1,2.55-1.5,3.28,3.28,0,0,1,2.66.7,2.94,2.94,0,0,1,1.16,2.15A3.64,3.64,0,0,1,61.59,156Zm-1.75-1.81a1.19,1.19,0,0,0,.25-.83.92.92,0,0,0-.37-.72.9.9,0,0,0-.82-.15,1.43,1.43,0,0,0-.74.5.17.17,0,0,0,0,.28,10.75,10.75,0,0,0,1.4.87C59.72,154.25,59.81,154.27,59.84,154.23Z" transform="translate(-29.46 -20.48)"/><path d="M69.25,160.57c-.23.44-.5.62-.8.54-.06,0-.52-.18-1.4-.54-.53-.21-1.3-.55-2.32-1a1,1,0,0,0,.15.94,2.23,2.23,0,0,0,.73.66,2.72,2.72,0,0,0,1.33.31l.65-.05a2.08,2.08,0,0,1,.1.9,2.73,2.73,0,0,1-.08.92.35.35,0,0,1-.18.1,3.59,3.59,0,0,1-3-.48,3.77,3.77,0,0,1-1.94-2.34,3.52,3.52,0,0,1,.6-2.92,4.35,4.35,0,0,1,2.32-1.84,3.27,3.27,0,0,1,2.72.3A2.87,2.87,0,0,1,69.58,158,3.59,3.59,0,0,1,69.25,160.57Zm-2-1.54a1.2,1.2,0,0,0,.13-.85.92.92,0,0,0-.46-.66.88.88,0,0,0-.82,0,1.41,1.41,0,0,0-.67.59q-.1.18.06.27A9.87,9.87,0,0,0,67,159C67.17,159.07,67.26,159.08,67.29,159Z" transform="translate(-29.46 -20.48)"/><path d="M80.78,163s-.06.1-.16.17a1.11,1.11,0,0,0-.35-.16,1.16,1.16,0,0,0-.71,0,.72.72,0,0,0-.51.49,1,1,0,0,0,.13.73,8.53,8.53,0,0,1,.39,1,2.21,2.21,0,0,1,0,1.25,2.28,2.28,0,0,1-.38.72,1.62,1.62,0,0,1-.61.53,4.94,4.94,0,0,1-1.48.36,3.6,3.6,0,0,1-1.51-.15c-.1,0-.22-.35-.35-1a3.23,3.23,0,0,1-.13-1.09s0-.05.11,0l1,.16c.45,0,.73-.13.84-.43a1.28,1.28,0,0,0-.09-.83,10,10,0,0,1-.36-1,1.94,1.94,0,0,1,.06-1.17,2.44,2.44,0,0,1,1.64-1.42,3.41,3.41,0,0,1,2.07,0c.07,0,.15.33.26.91A4,4,0,0,1,80.78,163Z" transform="translate(-29.46 -20.48)"/><path d="M89.84,165.61c-.27,1.67-.54,3.34-.8,5,0,.16-.12.25-.26.25s-.52,0-1.08-.14a6.1,6.1,0,0,1-1.11-.26.27.27,0,0,1-.19-.35c.09-.41.22-1,.4-1.87s.3-1.45.39-1.86a.74.74,0,0,0-.65-1,1.21,1.21,0,0,0-.69.1c-.3.11-.48.26-.52.44l-.4,1.77c-.05.23-.13.58-.22,1s-.17.81-.23,1-.13.26-.29.25-.58-.1-1.27-.26a4.41,4.41,0,0,1-.85-.26c-.16-.08-.23-.19-.19-.32.1-.37.25-.93.46-1.68s.36-1.32.46-1.69c.41-1.55.74-2.84,1-3.87.09-.36.17-.71.26-1.07a7.73,7.73,0,0,0,.17-1.09c0-.06,0-.11,0-.14a.15.15,0,0,1,.13-.12,2.37,2.37,0,0,1,.59.06,4.38,4.38,0,0,0,.58.1l1.16.1c.06,0,.09.07.06.17s-.09.36-.16.62-.14.51-.17.62c-.27,1.08-.48,1.93-.62,2.56,0,.1,0,.15,0,.16l.4-.18a4.38,4.38,0,0,1,.83-.32,2.43,2.43,0,0,1,1.06-.07,2.21,2.21,0,0,1,1.33.72A1.82,1.82,0,0,1,89.84,165.61Z" transform="translate(-29.46 -20.48)"/><path d="M99.14,168.05a3.62,3.62,0,0,1-1.06,2.71,3.58,3.58,0,0,1-6.08-3,4.22,4.22,0,0,1,1.24-2.66,3.6,3.6,0,0,1,5,.28A3.94,3.94,0,0,1,99.14,168.05ZM96.82,168a1.64,1.64,0,0,0-.29-1,1.08,1.08,0,0,0-.86-.49,1.13,1.13,0,0,0-.93.39,1.59,1.59,0,0,0-.42,1,1.54,1.54,0,0,0,.26,1,1.1,1.1,0,0,0,.9.52,1.12,1.12,0,0,0,1-.4A1.61,1.61,0,0,0,96.82,168Z" transform="translate(-29.46 -20.48)"/><path d="M109.43,167.49a3.71,3.71,0,0,1-.54,2.71,3.11,3.11,0,0,1-2.4,1.33,3.18,3.18,0,0,1-1.25-.18,3,3,0,0,1-.62-.24c-.06,0-.09.08-.08.23s.06.62.12,1.12.09.88.11,1.13-.07.24-.24.25l-1.57.08a3.41,3.41,0,0,1-.69,0,.27.27,0,0,1-.24-.27l-.15-5.66a15.47,15.47,0,0,0-.33-2.88.57.57,0,0,1,0-.12.13.13,0,0,1,.07-.15,5.55,5.55,0,0,1,1-.27,7.3,7.3,0,0,1,1-.17c.17,0,.28.11.32.36s.08.37.12.37.14-.14.55-.44a2.25,2.25,0,0,1,1.12-.49,3,3,0,0,1,2.45.8A4.06,4.06,0,0,1,109.43,167.49Zm-2.61.29a1.62,1.62,0,0,0-.45-1,1.16,1.16,0,0,0-1-.38,1,1,0,0,0-.85.53,1.69,1.69,0,0,0-.22,1,1.61,1.61,0,0,0,.38,1,1.09,1.09,0,0,0,1,.37C106.55,169.31,106.92,168.77,106.82,167.78Z" transform="translate(-29.46 -20.48)"/><path d="M127,166.16c.09.2,0,.35-.22.45l-.66.28c-.29.13-.52.22-.67.27a3.16,3.16,0,0,1-2.48-.57c-.15.3-.42.75-.8,1.34a3.27,3.27,0,0,1-1.74,1.11,2.29,2.29,0,0,1-2-.29,2.92,2.92,0,0,1-1.13-1.74,3.05,3.05,0,0,1,.14-2.18,11.68,11.68,0,0,1,1.23-1.73,5.49,5.49,0,0,1-.93-1.6,3,3,0,0,1,0-2.06,2.08,2.08,0,0,1,1.38-1.19,2,2,0,0,1,1.57.08,2.44,2.44,0,0,1,1.11,1.37,2,2,0,0,1,0,1.41,3.06,3.06,0,0,1-.35.71l-.41.66c.17.13.42.32.76.56l.79.51a5.86,5.86,0,0,1,.54-1.32,2.17,2.17,0,0,1,1.07-.86,1.43,1.43,0,0,1,.47-.13c.11,0,.22.13.31.35a5.5,5.5,0,0,1,.4,1.24c0,.12-.05.24-.23.36a3.36,3.36,0,0,0-.55.43,1.72,1.72,0,0,0-.44.95,1.61,1.61,0,0,0,1.68.16c.33-.12.51-.13.57,0Zm-5.32-.55a5.17,5.17,0,0,1-.95-.59l-.89-.67a2,2,0,0,0-.47.85,1.58,1.58,0,0,0,0,1,1.17,1.17,0,0,0,.49.68,1,1,0,0,0,.81.1,1.51,1.51,0,0,0,.72-.53A1.29,1.29,0,0,0,121.71,165.61Zm-1.2-5.65a.64.64,0,0,0-.91-.43.84.84,0,0,0-.5.4.82.82,0,0,0,0,.67,2.05,2.05,0,0,0,.79,1.05C120.46,161,120.66,160.39,120.51,160Z" transform="translate(-29.46 -20.48)"/><path d="M139.48,155.61a3.78,3.78,0,0,1,.82,2.61,3,3,0,0,1-1.45,2.31A2.5,2.5,0,0,1,137,161c-.05,0-.08,0-.1,0s0,.12,0,.3.07.29,0,.34a21.39,21.39,0,0,1-1.84,1.1c-.27.16-.44.18-.5.08s0,0,0-.1a41.09,41.09,0,0,0-2.1-4c-1-1.83-2-3.39-2.91-4.68l0-.07c0-.07,0-.14.11-.21s.39-.26.91-.64.67-.48.92-.63c.07,0,.14,0,.23.14s.23.39.38.67.31.57.37.67c.24.43.58,1,1,1.72.08.13.16.17.22.14a.13.13,0,0,0,.05-.11,2,2,0,0,1,1-1.44,2.87,2.87,0,0,1,2.56-.39A4.45,4.45,0,0,1,139.48,155.61ZM137.3,157a1.56,1.56,0,0,0-.89-.66,1.19,1.19,0,0,0-1,.14,1.11,1.11,0,0,0-.55.85,1.83,1.83,0,0,0,1.11,1.79A1.22,1.22,0,0,0,137,159a1.18,1.18,0,0,0,.59-.89A1.63,1.63,0,0,0,137.3,157Z" transform="translate(-29.46 -20.48)"/><path d="M143.71,152.56l1.07,1.2c.49.53.84.93,1.08,1.2a.18.18,0,0,1,0,.26,8,8,0,0,1-.86.79,10.22,10.22,0,0,1-.94.7c-.1,0-.17.07-.22,0a.7.7,0,0,1-.15-.17l-.95-1.21c-.42-.54-.73-.95-1-1.22a30.76,30.76,0,0,0-2.22-2.52l-.11-.11c-.06-.08,0-.16,0-.23L140,151l.49-.34.43-.41.43-.42c.09-.07.16-.07.22,0s0,.05.09.11A31,31,0,0,0,143.71,152.56Zm-3.48-4.28a1.14,1.14,0,0,1-.17,1.83,1.38,1.38,0,0,1-.94.34,1.26,1.26,0,0,1-.92-.5,1.24,1.24,0,0,1-.27-1,1.26,1.26,0,0,1,.47-.82,1.32,1.32,0,0,1,1.83.15Z" transform="translate(-29.46 -20.48)"/><path d="M147.1,145.67a.36.36,0,0,1,.07.21,1.48,1.48,0,0,0-.3.26,1.24,1.24,0,0,0-.35.64.71.71,0,0,0,.22.68,1.14,1.14,0,0,0,.73.2,9.06,9.06,0,0,1,1.06.05,2.25,2.25,0,0,1,1.15.55,2.45,2.45,0,0,1,.48.66,1.59,1.59,0,0,1,.2.79,5,5,0,0,1-.34,1.51,3.61,3.61,0,0,1-.84,1.31c-.07.08-.42.05-1.05-.1a3,3,0,0,1-1.06-.35s0-.07,0-.12l.63-.87c.21-.4.21-.72,0-.94a1.22,1.22,0,0,0-.8-.28c-.66,0-1-.08-1-.08a1.94,1.94,0,0,1-1-.57,2.34,2.34,0,0,1-.55-2.1,3.46,3.46,0,0,1,.91-1.91c.05-.06.37,0,1,.15A3.51,3.51,0,0,1,147.1,145.67Z" transform="translate(-29.46 -20.48)"/><path d="M154.89,142.09c.12.09.29.24.51.44a5.72,5.72,0,0,0,.5.44c.11.09.18.15.19.2a.83.83,0,0,1,0,.31,4.46,4.46,0,0,1-.93,2.13c-.93,1.21-1.84,1.43-2.67.72-.25-.21-.62-.53-1.1-1s-.86-.77-1.11-1a.3.3,0,0,0-.48.07l-.07.08-.05.07c-.12.15-.23.17-.33.08a2.66,2.66,0,0,1-.26-.25l-.27-.25-.37-.29-.37-.3c-.08-.07,0-.21.17-.45s.12-.24.06-.31a6,6,0,0,0-.67-.59l-.71-.57c-.44-.37-.63-.59-.56-.67a2.46,2.46,0,0,1,.39-.35,3.38,3.38,0,0,0,.42-.35c.18-.15.43-.4.76-.74.08-.08.14-.1.2-.05a8.71,8.71,0,0,1,.68.58c.3.27.53.47.69.59s.33.17.41.06.25-.34.43-.62l.43-.63c.07-.08.12-.1.19-.06l.39.33a3.41,3.41,0,0,0,.39.33l.42.31.42.3c.09.06.09.15,0,.26l-.3.4-.31.39-.33.44c0,.06,0,.16.19.29l.42.32.42.32a1.69,1.69,0,0,0,.77.41c.25,0,.49-.13.73-.45a2.75,2.75,0,0,0,.26-.5,3.41,3.41,0,0,1,.22-.46A.15.15,0,0,1,154.89,142.09Z" transform="translate(-29.46 -20.48)"/><path d="M156.87,134.24c.17.1.2.24.09.43l-.22.37-.22.36a1.43,1.43,0,0,0-.26.85c0,.19.21.4.55.6l.83.49.83.5.56.3.56.3c.1.07.11.18,0,.34s-.31.58-.59,1a10.14,10.14,0,0,1-.68,1c-.11.14-.23.17-.35.09l-1.47-1-1.47-1a11.66,11.66,0,0,0-2.55-1.33l-.11,0a.14.14,0,0,1-.06-.17c.12-.24.29-.6.49-1.08l.42-1.13c.05-.08.21,0,.48.1s.43.19.47.13,0-.18,0-.72a2.94,2.94,0,0,1,.33-1.39c.13-.24.24-.33.35-.27l.51.33.5.35.5.27Z" transform="translate(-29.46 -20.48)"/><path d="M161.91,125.13a3.44,3.44,0,0,1,2.16,2.07,4.46,4.46,0,0,1-.17,3.31,4.1,4.1,0,0,1-2.17,2.33,3.22,3.22,0,0,1-2.86-.17,3.86,3.86,0,0,1-1.86-5.22,4,4,0,0,1,2-2.23A3.54,3.54,0,0,1,161.91,125.13Zm-.93,2.51a1.47,1.47,0,0,0-1.09,0,1.25,1.25,0,0,0-.79.75,1.35,1.35,0,0,0,0,1.13,1.56,1.56,0,0,0,.78.78,1.41,1.41,0,0,0,1.08.08,1.3,1.3,0,0,0,.83-.79,1.38,1.38,0,0,0,0-1.16A1.51,1.51,0,0,0,161,127.64Z" transform="translate(-29.46 -20.48)"/><path d="M163.29,112.08a1.56,1.56,0,0,1,1.12.8,2.13,2.13,0,0,1,.26,1.54,2.1,2.1,0,0,1-.79,1.32,1.56,1.56,0,0,1-1.33.31,1.63,1.63,0,0,1-1.09-.82,2.07,2.07,0,0,1-.24-1.47,2.1,2.1,0,0,1,.75-1.29A1.63,1.63,0,0,1,163.29,112.08Z" transform="translate(-29.46 -20.48)"/></g></svg>